<svg aria-hidden="true" style="position: absolute; width: 0; height: 0; overflow: hidden;" version="1.1" xmlns="http://www.w3.org/2000/svg" xmlns:xlink="http://www.w3.org/1999/xlink">
<defs>
<symbol id="icon-burger-open" viewBox="0 0 38 32">
<path fill="#f5f5f5" style="fill: var(--color1, #f5f5f5)" d="M0 0h38.4v32h-38.4z"></path>
<path fill="#fff8f3" style="fill: var(--color2, #fff8f3)" d="M-409.6-30.72h460.8v9049.6h-460.8z"></path>
<path fill="#7b6152" style="fill: var(--color3, #7b6152)" d="M0 0h38.4v1.28h-38.4zM0 7.68h38.4v1.28h-38.4zM0 15.36h38.4v1.28h-38.4zM0 23.040h38.4v1.28h-38.4zM0 30.72h38.4v1.28h-38.4z"></path>
</symbol>
<symbol id="icon-burger-close" viewBox="0 0 32 32">
<path d="M16 0c-8.837 0-16 7.163-16 16s7.163 16 16 16 16-7.163 16-16-7.163-16-16-16zM16 29c-7.18 0-13-5.82-13-13s5.82-13 13-13 13 5.82 13 13-5.82 13-13 13z"></path>
<path d="M21 8l-5 5-5-5-3 3 5 5-5 5 3 3 5-5 5 5 3-3-5-5 5-5z"></path>
</symbol><symbol id="icon-cake-dark" viewBox="0 0 24 24">
<path d="M18 9q1.219 0 2.109 0.891t0.891 2.109v1.547q0 0.797-0.586 1.383t-1.383 0.586-1.359-0.563l-2.156-2.156-2.156 2.156q-0.563 0.563-1.383 0.563t-1.383-0.563l-2.109-2.156-2.156 2.156q-0.563 0.563-1.359 0.563t-1.383-0.586-0.586-1.383v-1.547q0-1.219 0.891-2.109t2.109-0.891h5.016v-2.016h1.969v2.016h5.016zM16.594 15.984q1.031 1.031 2.438 1.031 1.031 0 1.969-0.609v4.594q0 0.422-0.281 0.703t-0.703 0.281h-16.031q-0.422 0-0.703-0.281t-0.281-0.703v-4.594q0.891 0.609 1.969 0.609 1.406 0 2.438-1.031l1.078-1.078 1.078 1.078q0.984 0.984 2.438 0.984t2.438-0.984l1.078-1.078zM12 6q-0.797 0-1.406-0.609t-0.609-1.406q0-0.516 0.328-1.031l1.688-2.953 1.688 2.953q0.328 0.516 0.328 1.031 0 0.844-0.586 1.43t-1.43 0.586z"></path>
</symbol>
<symbol id="icon-cakecelebration" viewBox="0 0 32 32">
<path fill="#fff" style="fill: var(--color1, #fff)" d="M15.615 32c-6.686-0.035-11.085-2.16-11.296-3.67-0.030-0.218-0.025-0.55-0.002-1.372 0.007-0.245 0.016-0.594 0.020-0.857-0.252-0.255-0.555-0.668-0.617-1.282-0.061-0.604-0.145-3.172-0.2-6.106-0.058-3.116-0.091-4.832 1.529-6.201 1.742-1.473 8.082-1.49 8.351-1.49h0.133c-0.020-0.557-0.043-1.245-0.063-1.933-0.088-3.14-0.107-3.858 0.483-4.183-0.1-0.083-0.195-0.178-0.278-0.288-0.207-0.271-0.331-0.614-0.331-0.986 0-0.093 0.008-0.184 0.023-0.273l-0.001 0.010c0.1-0.661 0.428-1.063 0.625-1.304l0.031-0.038 0.004-0.11c0.018-0.541 0.052-1.544 0.974-1.854 0.115-0.038 0.255-0.061 0.376-0.061 0.556 0 0.92 0.379 1.040 0.502 0.417 0.434 1.267 1.687 1.232 2.792-0.017 0.522-0.154 0.952-0.365 1.29 0.425 0.085 0.73 0.225 0.911 0.42 0.215 0.23 0.329 0.545 0.309 0.86-0.001 0.105-0.008 2.645-0.014 4.843 1.455 0.002 3.57 0.116 5.433 0.65 1.88 0.538 4.4 1.534 4.564 3.959 0.085 1.264-0.262 10.072-0.341 10.658-0.084 0.627-0.695 1.475-1.378 1.969 0.004 0.421-0.010 0.848-0.185 1.215-0.445 0.928-3.659 2.843-10.764 2.843h-0.203z"></path>
<path fill="#000" style="fill: var(--color2, #000)" d="M10.070 16.945c-1.683-0.204-2.717-0.577-2.898-0.528-0.191 0.052-0.19 0.389-0.034 0.587s0.158 0.156 1.651 0.37c1.493 0.215 3.699 0.408 3.762 0.39 0.064-0.017 0.045-0.418 0.031-0.545s-0.832-0.070-2.515-0.275zM15.675 4.325c0.353 0.042 0.81-0.269 0.836-1.067 0.025-0.799-0.94-2.183-1.153-2.11-0.213 0.071-0.181 0.6-0.21 1.082-0.027 0.482-0.56 0.64-0.661 1.308s0.912 0.753 1.188 0.786zM15.41 3.15c0.27-0.341 0.16-0.601 0.283-0.551s0.351 0.442 0.253 0.689c-0.098 0.247-0.227 0.682-0.781 0.502-0.155-0.051-0.025-0.296 0.246-0.639zM27.352 15.393c-0.079-1.163-0.963-2.142-3.74-2.937-2.778-0.795-6.262-0.579-6.262-0.579s0.015-6.022 0.018-6.085c0.003-0.063-1.203-0.176-1.288-0.16s0.095-0.921 0.038-1.008-0.48-0.028-0.563-0.033c-0.083-0.005 0.008 0.948-0.040 1.050-0.047 0.103-0.72 0.168-0.891 0.222s0.091 6.344 0.091 6.344c-2.227-0.174-7.748 0.175-8.937 1.18-1.188 1.004-1.18 2.31-1.123 5.303s0.141 5.484 0.195 6.014c0.053 0.53 0.521 0.747 0.597 0.878s-0.048 2.271-0.004 2.59 3.13 2.648 10.177 2.684c7.046 0.037 9.77-1.846 9.937-2.195 0.166-0.348-0.036-1.539 0.169-1.463s1.22-0.834 1.293-1.377c0.075-0.544 0.413-9.264 0.335-10.427zM15.143 6.315s1.513-0.143 1.632-0.010c0.118 0.134 0.063 7.923 0.052 8.111s-0.442 0.774-0.739 0.841c-0.296 0.067-0.86 0.034-0.799-0.3s-0.215-8.542-0.146-8.643zM6.394 28.016c0.025-0.061 0.947-1.902 0.947-1.902l0.943-0.387-1.234 2.876-0.656-0.587zM6.201 27.731l0.098-1.7c0.104 0.006 0.579 0.119 0.579 0.119l-0.678 1.581zM7.607 28.72c0.013-0.214 2.807-7.29 2.807-7.29s0.472 0.175 0.359 1.032c-0.113 0.857-0.448 2.669-0.448 2.669s-2.111 3.94-2.172 3.915c-0.061-0.025-0.551-0.221-0.545-0.326zM9.32 22.271c0.087-0.416 0.495-0.602 0.58-0.619 0.169-0.032-0.638 1.626-0.638 1.626s-0.028-0.591 0.058-1.008zM8.441 29.126c0.006-0.105 1.772-3.139 1.863-3.26l0.265 0.837-1.22 2.624s-0.914-0.096-0.908-0.201zM10.675 29.553c-0.084-0.005-0.81-0.090-0.805-0.174 0.005-0.085 0.951-1.987 1-2.11 0 0 0.715 0.295 0.71 0.378-0.005 0.084-0.822 1.91-0.905 1.905zM11.793 29.766c-0.104-0.006-0.723-0.148-0.723-0.148s0.867-1.97 0.95-1.965l0.666 0.060s-0.789 2.059-0.893 2.053zM12.089 29.7c-0.043-0.062 1.305-2.303 1.305-2.303s0.639-0.194 0.875-1.38l0.236-1.187s1.773-3.518 1.835-3.514c0.063 0.003 0.208 1.108 0.143 1.503s-3.603 6.927-3.712 7.005c-0.109 0.077-0.606-0.015-0.683-0.125zM14.376 21.663c0.53-0.832 1.434-0.927 1.512-0.837s-1.435 3.095-1.505 3.218c0 0-0.537-1.548-0.008-2.38zM13.348 30.005c0.008-0.146 2.33-4.474 2.508-4.654 0.094-0.094-0.076 0.585 0.011 0.885s0.129 0.302 0.080 0.426-1.844 3.303-1.952 3.36c-0.107 0.057-0.655 0.13-0.647-0.017zM14.437 29.985c-0.137-0.065 1.679-2.975 1.843-2.924s0.759 0.255 0.759 0.255-1.107 2.483-1.281 2.62c-0.175 0.137-1.015 0.193-1.32 0.049zM17.689 29.819c-0.128 0.035-1.18 0.162-1.404 0.044 0 0 1.258-2.58 1.383-2.572s0.771 0.046 1.145-0.627c0.373-0.673 0.58-1.335 0.58-1.335s1.392-2.36 1.454-2.357c0.063 0.003 0.119 0.828 0.070 0.952s-3.101 5.86-3.229 5.895zM19.517 22.829c0.249-0.322 0.836-0.35 0.894-0.263s-1.033 1.997-1.050 1.875c-0.044-0.317-0.092-1.289 0.157-1.611zM19.308 29.662c-0.215 0.093-0.977 0.259-0.925 0.072 0.053-0.186 1.997-3.758 2.064-3.837 0.069-0.082 0.206 0.77 0.346 0.884 0.14 0.113-1.27 2.789-1.485 2.881zM20.766 29.41c-0.282 0.174-0.898 0.326-0.911 0.2-0.014-0.128 1.311-2.409 1.483-2.482 0.058-0.025 0.753 0.002 0.682 0.145s-0.972 1.965-1.254 2.138zM21.361 29.235c-0.041-0.073 0.972-1.965 1.079-2 0.107-0.037 0.55-0.095 0.821-0.815 0.272-0.721 0.337-2.192 0.497-2.435s0.884-0.454 0.549 0.643c-0.335 1.096-1.872 4.502-2.003 4.6-0.131 0.096-0.828 0.203-0.942 0.007zM24.409 28.277c-0.113 0.141-0.895 0.642-1.521 0.627-0.245-0.006 1.227-2.392 1.306-2.324s0.32 0.25 0.335 0.356c0.015 0.107-0.007 1.2-0.12 1.341zM26.113 25.219c-0.235 0.808-0.398 1.072-0.523 1.065-0.125-0.008-0.613-0.247-0.567-0.686s0.192-1.147 0.2-1.652 0.044-0.755-0.26-0.921c-0.305-0.165-1.817-0.065-2.075 0.425s-0.236 2.261-0.294 2.532-0.766 0.587-1.004 0.005c-0.238-0.583 0.474-2.753 0.247-3.545s-1.348-0.922-2.241-0.659c-0.893 0.264-1.17 0.69-1.16 1.616 0.009 0.927 0.093 2.343-0.284 2.721s-1.419 0.654-1.227-0.852 0.936-2.788 0.433-4.207c-0.503-1.42-2.223-1.331-2.836-0.862s-1.518 1.3-1.27 2.768c0.25 1.468 0.932 3.761-0.998 3.879s-0.585-3.973-0.594-4.541c-0.009-0.569 0.035-1.683-1.258-1.759s-2.095 1.14-2.197 2.186c-0.102 1.047-0.207 2.473-1.395 2.403s-0.947-1.32-0.848-3.041c0.1-1.721-0.578-5.53-0.414-6.195 0.163-0.663 0.288-2.088 2.804-2.551s6.515-0.543 6.515-0.543-0.142 2.455-0.046 2.608c0.095 0.153 1.353 0.48 1.966-0.010s0.634-0.469 0.648-0.72c0.015-0.252 0.095-1.995 0.095-1.995 0.146 0.008 3.183-0.066 4.993 0.462s3.55 1.536 3.628 2.362c0.078 0.827 0.195 8.899-0.040 9.707z"></path>
</symbol>
<symbol id="icon-colored-cake" viewBox="0 0 32 32">
<path fill="#ffefd9" style="fill: var(--color3, #ffefd9)" d="M26.435 11.117h-20.87c-1.726 0-3.13 1.404-3.13 3.13v11.478h27.13v-11.478c0-1.726-1.404-3.13-3.13-3.13z"></path>
<path fill="#ffd9b3" style="fill: var(--color4, #ffd9b3)" d="M26.435 11.117h-10.435v14.609h13.565v-11.478c0-1.726-1.404-3.13-3.13-3.13z"></path>
<path fill="#a6673a" style="fill: var(--color5, #a6673a)" d="M2.435 23.639v5.217c0 0.576 0.467 1.043 1.043 1.043h25.043c0.576 0 1.043-0.467 1.043-1.043v-5.217h-27.13z"></path>
<path fill="#99522e" style="fill: var(--color6, #99522e)" d="M16 29.9h12.522c0.576 0 1.043-0.467 1.043-1.043v-5.217h-13.565v6.261z"></path>
<path fill="#ffc033" style="fill: var(--color7, #ffc033)" d="M28.522 31.987h-25.043c-1.921 0-3.478-1.557-3.478-3.478 0-0.384 0.311-0.696 0.696-0.696h30.609c0.384 0 0.696 0.311 0.696 0.696 0 1.921-1.557 3.478-3.478 3.478z"></path>
<path fill="#f9a926" style="fill: var(--color8, #f9a926)" d="M31.304 27.813h-15.304v4.174h12.522c1.921 0 3.478-1.557 3.478-3.478 0-0.384-0.311-0.696-0.696-0.696z"></path>
<path fill="#a6673a" style="fill: var(--color5, #a6673a)" d="M20.174 7.639h-1.282c1.586-1.339 2.666-2.469 2.666-4.159 0-1.944-1.45-3.467-3.301-3.467-0.983 0-1.725 0.418-2.257 0.962-0.532-0.544-1.274-0.962-2.257-0.962-1.851 0-3.301 1.523-3.301 3.467 0 1.69 1.081 2.82 2.666 4.159h-1.283c-1.726 0-3.13 1.404-3.13 3.13v1.391c0 0.576 0.467 1.043 1.043 1.043h12.522c0.576 0 1.043-0.467 1.043-1.043v-1.391c0-1.726-1.404-3.13-3.13-3.13zM13.743 2.1c0.886 0 1.235 1.117 1.254 1.179 0.129 0.44 0.529 0.755 1.003 0.755 0.476 0 0.878-0.319 1.003-0.755l0.002-0.007c0.003-0.012 0.353-1.172 1.252-1.172 0.797 0 1.214 0.694 1.214 1.38 0 0.947-0.89 1.721-2.743 3.244-0.233 0.192-0.476 0.392-0.728 0.602-0.252-0.21-0.495-0.41-0.728-0.602-1.853-1.523-2.743-2.297-2.743-3.244 0-0.686 0.417-1.38 1.214-1.38z"></path>
<path fill="#99522e" style="fill: var(--color6, #99522e)" d="M17.005 3.272c0.003-0.012 0.353-1.172 1.252-1.172 0.797 0 1.214 0.694 1.214 1.38 0 0.947-0.89 1.721-2.743 3.244-0.233 0.192-0.476 0.392-0.728 0.602v5.879h6.261c0.576 0 1.043-0.467 1.043-1.043v-1.391c0-1.726-1.404-3.13-3.13-3.13h-1.282c1.586-1.339 2.666-2.469 2.666-4.159 0-1.944-1.45-3.467-3.301-3.467-0.983 0-1.725 0.418-2.257 0.962v3.060c0 0 0 0 0 0 0.476 0 0.878-0.319 1.003-0.755l0.002-0.007z"></path>
<path fill="#e6563a" style="fill: var(--color9, #e6563a)" d="M26.435 11.117h-20.87c-1.726 0-3.13 1.404-3.13 3.13v2.087c0 1.359 0.875 2.506 2.087 2.938 0.328 0.117 0.676 0.192 1.043 0.192 0.801 0 1.533-0.302 2.087-0.799 0.554 0.497 1.286 0.799 2.087 0.799s1.533-0.302 2.087-0.799c0.554 0.497 1.286 0.799 2.087 0.799s1.533-0.302 2.087-0.799c0.554 0.497 1.286 0.799 2.087 0.799s1.533-0.302 2.087-0.799c0.554 0.497 1.286 0.799 2.087 0.799s1.533-0.302 2.087-0.799c0.554 0.497 1.286 0.799 2.087 0.799 0.368 0 0.716-0.075 1.043-0.192 1.212-0.432 2.087-1.58 2.087-2.938v-2.087c0-1.726-1.404-3.13-3.13-3.13z"></path>
<path fill="#d9472b" style="fill: var(--color10, #d9472b)" d="M26.435 11.117h-10.435v7.549c0.554 0.497 1.286 0.799 2.087 0.799s1.533-0.302 2.087-0.799c0.554 0.497 1.286 0.799 2.087 0.799s1.533-0.302 2.087-0.799c0.554 0.497 1.286 0.799 2.087 0.799 0.368 0 0.716-0.075 1.043-0.192 1.212-0.432 2.087-1.58 2.087-2.938v-2.087c0-1.726-1.404-3.13-3.13-3.13z"></path>
</symbol>
<symbol id="icon-facebook" viewBox="0 0 32 32">
<path d="M16 3.001c-7.18 0-13.001 5.821-13.001 13.001s5.821 13.001 13.001 13.001c7.18 0 13.001-5.821 13.001-13.001 0-0 0-0.001 0-0.002v0c-0.007-7.177-5.824-12.993-13-13.001h-0.001zM17.001 26.954v-7.953h2.999c0.553 0 1.001-0.448 1.001-1.001s-0.448-1.001-1.001-1.001h-3.001v-2.998c0-1.105 0.895-2 2-2 0 0 0.001 0 0.002 0h1.998c0.552 0 1-0.448 1-1s-0.448-1-1-1v0h-1.999c-2.209 0-4 1.791-4 4v0 3.001h-3.001c-0.552 0-0.999 0.447-0.999 0.999s0.447 0.999 0.999 0.999h3.001v7.955c-5.629-0.529-10-5.231-10-10.954 0-6.075 4.925-10.999 10.999-10.999s10.999 4.925 10.999 10.999c0 5.723-4.371 10.425-9.956 10.95l-0.044 0.003z"></path>
</symbol>
<symbol id="icon-instagram" viewBox="0 0 32 32">
<path d="M16 10c-3.314 0-6 2.686-6 6s2.686 6 6 6v0c3.314 0 6-2.686 6-6s-2.686-6-6-6v0zM16 20c-2.209 0-4-1.791-4-4s1.791-4 4-4v0c2.209 0 4 1.791 4 4s-1.791 4-4 4v0zM22 2.999h-12c-3.865 0.004-6.997 3.136-7.001 7v12c0.004 3.865 3.136 6.997 7 7.001h12c3.865-0.003 6.997-3.136 7.001-7v-12c-0.004-3.865-3.136-6.997-7-7.001h-0zM27.001 22c0 2.762-2.239 5.001-5.001 5.001v0h-12c-2.762 0-5.001-2.239-5.001-5.001v0-12c0-0 0-0.001 0-0.001 0-2.761 2.238-4.999 4.999-4.999 0.001 0 0.001 0 0.002 0h12c2.762 0 5.001 2.239 5.001 5.001v0 12zM24 9.5c0 0.829-0.672 1.5-1.5 1.5s-1.5-0.672-1.5-1.5v0c0-0.829 0.672-1.5 1.5-1.5s1.5 0.672 1.5 1.5v0z"></path>
</symbol>
<symbol id="icon-phone" viewBox="0 0 32 32">
<path fill="#bea495" style="fill: var(--color11, #bea495)" d="M25.169 20.576l-6.246-0.723-2.987 2.987c-3.381-1.744-6.067-4.43-7.765-7.711l-0.047-0.099 2.999-2.999-0.723-6.223h-6.53c-0.022 0.354-0.035 0.768-0.035 1.185 0 11.129 9.022 20.151 20.151 20.151 0.416 0 0.829-0.013 1.239-0.037l-0.056 0.003v-6.532z"></path>
</symbol>
</defs>
</svg>
