<svg aria-hidden="true" style="position: absolute; width: 0; height: 0; overflow: hidden;" version="1.1" xmlns="http://www.w3.org/2000/svg" xmlns:xlink="http://www.w3.org/1999/xlink">
<defs>
<symbol id="icon-burger-open" viewBox="0 0 38 32">
<path fill="#f5f5f5" style="fill: var(--color1, #f5f5f5)" d="M0 0h38.4v32h-38.4z"></path>
<path fill="#fff8f3" style="fill: var(--color2, #fff8f3)" d="M-409.6-30.72h460.8v9049.6h-460.8z"></path>
<path fill="#7b6152" style="fill: var(--color3, #7b6152)" d="M0 0h38.4v1.28h-38.4zM0 7.68h38.4v1.28h-38.4zM0 15.36h38.4v1.28h-38.4zM0 23.040h38.4v1.28h-38.4zM0 30.72h38.4v1.28h-38.4z"></path>
</symbol>
<symbol id="icon-burger-close" viewBox="0 0 32 32">
<path d="M16 0c-8.837 0-16 7.163-16 16s7.163 16 16 16 16-7.163 16-16-7.163-16-16-16zM16 29c-7.18 0-13-5.82-13-13s5.82-13 13-13 13 5.82 13 13-5.82 13-13 13z"></path>
<path d="M21 8l-5 5-5-5-3 3 5 5-5 5 3 3 5-5 5 5 3-3-5-5 5-5z"></path>
</symbol>
<symbol id="icon-facebook" viewBox="0 0 32 32">
<path d="M31.997 15.999c0-8.836-7.163-15.999-15.999-15.999s-15.999 7.163-15.999 15.999c0 7.985 5.851 14.604 13.499 15.804v-11.18h-4.062v-4.625h4.062v-3.525c0-4.010 2.389-6.225 6.043-6.225 1.75 0 3.581 0.313 3.581 0.313v3.937h-2.017c-1.987 0-2.607 1.233-2.607 2.498v3.001h4.437l-0.709 4.625h-3.728v11.18c7.649-1.2 13.499-7.819 13.499-15.804z"></path>
</symbol>
<symbol id="icon-instagram" viewBox="0 0 32 32">
<path d="M16 10c-3.314 0-6 2.686-6 6s2.686 6 6 6v0c3.314 0 6-2.686 6-6s-2.686-6-6-6v0zM16 20c-2.209 0-4-1.791-4-4s1.791-4 4-4v0c2.209 0 4 1.791 4 4s-1.791 4-4 4v0zM22 2.999h-12c-3.865 0.004-6.997 3.136-7.001 7v12c0.004 3.865 3.136 6.997 7 7.001h12c3.865-0.003 6.997-3.136 7.001-7v-12c-0.004-3.865-3.136-6.997-7-7.001h-0zM27.001 22c0 2.762-2.239 5.001-5.001 5.001v0h-12c-2.762 0-5.001-2.239-5.001-5.001v0-12c0-0 0-0.001 0-0.001 0-2.761 2.238-4.999 4.999-4.999 0.001 0 0.001 0 0.002 0h12c2.762 0 5.001 2.239 5.001 5.001v0 12zM24 9.5c0 0.829-0.672 1.5-1.5 1.5s-1.5-0.672-1.5-1.5v0c0-0.829 0.672-1.5 1.5-1.5s1.5 0.672 1.5 1.5v0z"></path>
</symbol>
<symbol id="icon-phone" viewBox="0 0 32 32">
<path d="M25.169 20.576l-6.246-0.723-2.987 2.987c-3.381-1.744-6.067-4.43-7.765-7.711l-0.047-0.099 2.999-2.999-0.723-6.223h-6.53c-0.022 0.354-0.035 0.768-0.035 1.185 0 11.129 9.022 20.151 20.151 20.151 0.416 0 0.829-0.013 1.239-0.037l-0.056 0.003v-6.532z"></path>
</symbol>
<symbol id="icon-telegram" viewBox="0 0 24 24">
<path d="M11.944 0c-6.603 0.032-11.944 5.392-11.944 12 0 0 0 0 0 0v0c0 6.627 5.373 12 12 12v0c6.627 0 12-5.373 12-12v0c0-6.627-5.373-12-12-12v0c-0.008-0-0.018-0-0.028-0s-0.020 0-0.030 0h0.002zM16.906 7.224c0.1-0.002 0.321 0.023 0.465 0.14 0.093 0.081 0.156 0.195 0.171 0.323l0 0.002c0.016 0.093 0.036 0.306 0.020 0.472-0.18 1.898-0.962 6.502-1.36 8.627-0.168 0.9-0.499 1.201-0.82 1.23-0.696 0.065-1.225-0.46-1.9-0.902-1.056-0.693-1.653-1.124-2.678-1.8-1.185-0.78-0.417-1.21 0.258-1.91 0.177-0.184 3.247-2.977 3.307-3.23 0.007-0.032 0.014-0.15-0.056-0.212s-0.174-0.041-0.249-0.024c-0.106 0.024-1.793 1.14-5.061 3.345-0.48 0.33-0.913 0.49-1.302 0.48-0.428-0.008-1.252-0.241-1.865-0.44-0.752-0.245-1.349-0.374-1.297-0.789 0.027-0.216 0.325-0.437 0.893-0.663 3.498-1.524 5.83-2.529 6.998-3.014 3.332-1.386 4.025-1.627 4.476-1.635z"></path>
</symbol>
<symbol id="icon-viber" viewBox="0 0 24 24">
<path d="M11.4 0c-1.927 0.028-6.067 0.344-8.38 2.467-1.718 1.72-2.324 4.233-2.387 7.35-0.063 3.116-0.145 8.959 5.487 10.543h0.003l-0.004 2.416s-0.037 0.977 0.61 1.177c0.777 0.242 1.234-0.5 1.98-1.302 0.407-0.44 0.972-1.084 1.397-1.58 3.85 0.326 6.812-0.416 7.15-0.525 0.776-0.252 5.176-0.816 5.892-6.657 0.74-6.020-0.36-9.83-2.34-11.546-0.596-0.55-3.006-2.3-8.375-2.323 0 0-0.395-0.025-1.037-0.017zM11.458 1.693c0.545-0.004 0.88 0.017 0.88 0.017 4.542 0.020 6.717 1.388 7.222 1.846 1.675 1.435 2.53 4.868 1.906 9.897v0.002c-0.604 4.878-4.174 5.184-4.832 5.395-0.28 0.090-2.882 0.737-6.153 0.524 0 0-2.436 2.94-3.197 3.704-0.12 0.12-0.26 0.167-0.352 0.144-0.13-0.033-0.166-0.188-0.165-0.414l0.020-4.018c-4.762-1.32-4.485-6.292-4.43-8.895 0.054-2.604 0.543-4.738 1.996-6.173 1.96-1.773 5.474-2.018 7.11-2.030zM11.838 4.295c-0.161 0.008-0.289 0.141-0.289 0.304 0 0.161 0.125 0.293 0.284 0.303l0.001 0c1.624 0.010 2.946 0.537 4.028 1.592 1.073 1.046 1.62 2.468 1.633 4.334 0.002 0.167 0.14 0.3 0.307 0.3 0.166-0.002 0.3-0.137 0.3-0.304 0 0 0-0 0-0v0c-0.014-1.984-0.618-3.596-1.816-4.764-1.19-1.16-2.692-1.753-4.447-1.765zM7.878 4.99c-0.040-0.006-0.087-0.009-0.135-0.009-0.177 0-0.343 0.047-0.486 0.129l0.005-0.003-0.010 0.002c-0.43 0.247-0.816 0.562-1.146 0.932-0.002 0.004-0.006 0.004-0.008 0.008-0.267 0.323-0.42 0.638-0.46 0.948-0.005 0.030-0.008 0.064-0.008 0.1 0 0.014 0 0.028 0.001 0.042l-0-0.002c0 0.136 0.022 0.27 0.065 0.4l0.013 0.010c0.135 0.48 0.473 1.276 1.205 2.604 0.42 0.768 0.903 1.5 1.446 2.186 0.27 0.344 0.56 0.673 0.87 0.984l0.132 0.132c0.31 0.308 0.64 0.6 0.984 0.87 0.638 0.509 1.353 0.988 2.107 1.407l0.079 0.040c1.328 0.733 2.126 1.070 2.604 1.206l0.010 0.014c0.118 0.040 0.255 0.063 0.396 0.063 0.051 0 0.101-0.003 0.15-0.009l-0.006 0.001c0.31-0.036 0.627-0.19 0.948-0.46 0.004 0 0.003-0.002 0.008-0.005 0.37-0.33 0.683-0.72 0.93-1.148l0.003-0.010c0.225-0.432 0.15-0.842-0.18-1.12-0.004 0-0.698-0.58-1.037-0.83-0.36-0.255-0.73-0.492-1.113-0.71-0.51-0.285-1.032-0.106-1.248 0.174l-0.447 0.564c-0.23 0.283-0.657 0.246-0.657 0.246-3.12-0.796-3.955-3.955-3.955-3.955s-0.037-0.426 0.248-0.656l0.563-0.448c0.277-0.215 0.456-0.737 0.17-1.248-0.249-0.438-0.484-0.802-0.736-1.153l0.026 0.038c-0.313-0.41-0.585-0.746-0.865-1.077l0.034 0.042c-0.123-0.153-0.298-0.261-0.497-0.296l-0.005-0.001zM12.368 5.87c-0.003-0-0.006-0-0.009-0-0.167 0-0.303 0.136-0.303 0.303 0 0.164 0.131 0.298 0.294 0.303h0c1.16 0.085 2.017 0.466 2.645 1.15 0.63 0.688 0.93 1.524 0.906 2.57 0.009 0.161 0.143 0.289 0.306 0.289 0.158 0 0.289-0.12 0.304-0.274l0-0.001c0.025-1.175-0.334-2.193-1.067-2.994-0.74-0.81-1.777-1.253-3.050-1.346h-0.024zM12.831 7.5c-0.16 0.002-0.29 0.128-0.3 0.286l-0 0.001c-0.008 0.167 0.12 0.31 0.288 0.32 0.523 0.028 0.875 0.175 1.113 0.422 0.24 0.245 0.388 0.62 0.416 1.164 0.021 0.149 0.148 0.263 0.301 0.263 0.164 0 0.298-0.13 0.304-0.292l0-0.001c-0.030-0.644-0.215-1.178-0.58-1.557-0.367-0.378-0.893-0.574-1.52-0.607h-0.018z"></path>
</symbol>
<symbol id="icon-arrow-up" viewBox="0 0 32 32">
<path d="M27.414 12.586l-10-10c-0.781-0.781-2.047-0.781-2.828 0l-10 10c-0.781 0.781-0.781 2.047 0 2.828s2.047 0.781 2.828 0l6.586-6.586v19.172c0 1.105 0.895 2 2 2s2-0.895 2-2v-19.172l6.586 6.586c0.39 0.39 0.902 0.586 1.414 0.586s1.024-0.195 1.414-0.586c0.781-0.781 0.781-2.047 0-2.828z"></path>
</symbol>
</defs>
</svg>
