<svg aria-hidden="true" style="position:absolute;width:0;height:0" xmlns="http://www.w3.org/2000/svg" overflow="hidden"><defs><symbol id="icon-burger-open" viewBox="0 0 38 32"><path fill="var(--color1, #f5f5f5)" d="M0 0h38.4v32H0z"/><path fill="var(--color2, #fff8f3)" d="M-409.6-30.72H51.2v9049.6h-460.8z"/><path fill="var(--color3, #7b6152)" d="M0 0h38.4v1.28H0zm0 7.68h38.4v1.28H0zm0 7.68h38.4v1.28H0zm0 7.68h38.4v1.28H0zm0 7.68h38.4V32H0z"/></symbol><symbol id="icon-burger-close" viewBox="0 0 32 32"><path d="M16 0C7.163 0 0 7.163 0 16s7.163 16 16 16 16-7.163 16-16S24.837 0 16 0zm0 29C8.82 29 3 23.18 3 16S8.82 3 16 3s13 5.82 13 13-5.82 13-13 13z"/><path d="m21 8-5 5-5-5-3 3 5 5-5 5 3 3 5-5 5 5 3-3-5-5 5-5z"/></symbol><symbol id="icon-phone" viewBox="0 0 32 32"><path d="m25.169 20.576-6.246-.723-2.987 2.987c-3.381-1.744-6.067-4.43-7.765-7.711l-.047-.099 2.999-2.999-.723-6.223H3.87c-.022.354-.035.768-.035 1.185 0 11.129 9.022 20.151 20.151 20.151.416 0 .829-.013 1.239-.037l-.056.003v-6.532z"/></symbol><symbol id="icon-arrow-up" viewBox="0 0 32 32"><path d="m27.414 12.586-10-10a2 2 0 0 0-2.828 0l-10 10a2 2 0 1 0 2.828 2.828L14 8.828V28a2 2 0 1 0 4 0V8.828l6.586 6.586c.39.39.902.586 1.414.586s1.024-.195 1.414-.586a2 2 0 0 0 0-2.828z"/></symbol><symbol id="icon-facebook" viewBox="0 0 32 32"><path d="M31.997 15.999C31.997 7.163 24.834 0 15.998 0S-.001 7.163-.001 15.999c0 7.985 5.851 14.604 13.499 15.804v-11.18H9.436v-4.625h4.062v-3.525c0-4.01 2.389-6.225 6.043-6.225 1.75 0 3.581.313 3.581.313v3.937h-2.017c-1.987 0-2.607 1.233-2.607 2.498v3.001h4.437l-.709 4.625h-3.728v11.18c7.649-1.2 13.499-7.819 13.499-15.804z"/></symbol><symbol id="icon-instagram" viewBox="0 0 32 32"><path d="M16 10a6 6 0 1 0 0 12 6 6 0 1 0 0-12zm0 10a4 4 0 0 1 0-8 4 4 0 0 1 0 8zm6-17.001H10a7.008 7.008 0 0 0-7.001 7v12a7.008 7.008 0 0 0 7 7.001h12A7.007 7.007 0 0 0 29 22V10a7.008 7.008 0 0 0-7-7.001zM27.001 22A5.001 5.001 0 0 1 22 27.001H10A5.001 5.001 0 0 1 4.999 22V9.999A4.999 4.999 0 0 1 9.998 5H22a5.001 5.001 0 0 1 5.001 5.001v12zM24 9.5a1.5 1.5 0 1 1-3 0 1.5 1.5 0 1 1 3 0z"/></symbol><symbol id="icon-telegram" viewBox="0 0 24 24"><path d="M11.944 0C5.341.032 0 5.392 0 12c0 6.627 5.373 12 12 12s12-5.373 12-12S18.627 0 12 0H11.942h.002zm4.962 7.224c.1-.002.321.023.465.14a.507.507 0 0 1 .171.323v.002c.016.093.036.306.02.472-.18 1.898-.962 6.502-1.36 8.627-.168.9-.499 1.201-.82 1.23-.696.065-1.225-.46-1.9-.902-1.056-.693-1.653-1.124-2.678-1.8-1.185-.78-.417-1.21.258-1.91.177-.184 3.247-2.977 3.307-3.23.007-.032.014-.15-.056-.212s-.174-.041-.249-.024c-.106.024-1.793 1.14-5.061 3.345-.48.33-.913.49-1.302.48-.428-.008-1.252-.241-1.865-.44-.752-.245-1.349-.374-1.297-.789.027-.216.325-.437.893-.663 3.498-1.524 5.83-2.529 6.998-3.014 3.332-1.386 4.025-1.627 4.476-1.635z"/></symbol><symbol id="icon-viber" viewBox="0 0 24 24"><path d="M11.4 0C9.473.028 5.333.344 3.02 2.467 1.302 4.187.696 6.7.633 9.817.57 12.933.488 18.776 6.12 20.36h.003l-.004 2.416s-.037.977.61 1.177c.777.242 1.234-.5 1.98-1.302.407-.44.972-1.084 1.397-1.58 3.85.326 6.812-.416 7.15-.525.776-.252 5.176-.816 5.892-6.657.74-6.02-.36-9.83-2.34-11.546-.596-.55-3.006-2.3-8.375-2.323 0 0-.395-.025-1.037-.017zm.058 1.693c.545-.004.88.017.88.017 4.542.02 6.717 1.388 7.222 1.846 1.675 1.435 2.53 4.868 1.906 9.897v.002c-.604 4.878-4.174 5.184-4.832 5.395-.28.09-2.882.737-6.153.524 0 0-2.436 2.94-3.197 3.704-.12.12-.26.167-.352.144-.13-.033-.166-.188-.165-.414l.02-4.018c-4.762-1.32-4.485-6.292-4.43-8.895.054-2.604.543-4.738 1.996-6.173 1.96-1.773 5.474-2.018 7.11-2.03zm.38 2.602a.304.304 0 0 0-.005.607h.001c1.624.01 2.946.537 4.028 1.592 1.073 1.046 1.62 2.468 1.633 4.334a.304.304 0 0 0 .607-.004c-.014-1.984-.618-3.596-1.816-4.764-1.19-1.16-2.692-1.753-4.447-1.765zm-3.96.695a.974.974 0 0 0-.621.12l.005-.003-.01.002c-.43.247-.816.562-1.146.932-.002.004-.006.004-.008.008-.267.323-.42.638-.46.948a.614.614 0 0 0-.007.142v-.002c0 .136.022.27.065.4l.013.01c.135.48.473 1.276 1.205 2.604.42.768.903 1.5 1.446 2.186.27.344.56.673.87.984l.132.132c.31.308.64.6.984.87.638.509 1.353.988 2.107 1.407l.079.04c1.328.733 2.126 1.07 2.604 1.206l.01.014a1.25 1.25 0 0 0 .546.054l-.006.001c.31-.036.627-.19.948-.46.004 0 .003-.002.008-.005.37-.33.683-.72.93-1.148l.003-.01c.225-.432.15-.842-.18-1.12-.004 0-.698-.58-1.037-.83-.36-.255-.73-.492-1.113-.71-.51-.285-1.032-.106-1.248.174l-.447.564c-.23.283-.657.246-.657.246-3.12-.796-3.955-3.955-3.955-3.955s-.037-.426.248-.656l.563-.448c.277-.215.456-.737.17-1.248a12.63 12.63 0 0 0-.736-1.153l.026.038c-.313-.41-.585-.746-.865-1.077l.034.042a.821.821 0 0 0-.497-.296l-.005-.001zm4.49.88h-.009a.303.303 0 0 0-.009.606c1.16.085 2.017.466 2.645 1.15.63.688.93 1.524.906 2.57a.307.307 0 0 0 .61.015v-.001c.025-1.175-.334-2.193-1.067-2.994-.74-.81-1.777-1.253-3.05-1.346h-.024zm.463 1.63a.305.305 0 0 0-.3.286v.001c-.008.167.12.31.288.32.523.028.875.175 1.113.422.24.245.388.62.416 1.164a.304.304 0 0 0 .605-.029v-.001c-.03-.644-.215-1.178-.58-1.557-.367-.378-.893-.574-1.52-.607h-.018z"/></symbol></defs></svg>