<svg xmlns="http://www.w3.org/2000/svg" viewBox="0 0 460 460" xml:space="preserve"><path d="M380 159.81H80c-24.814 0-45 20.186-45 45v165h390v-165c0-24.815-20.186-45-45-45z" fill="#ffefd9"/><path d="M380 159.81H230v210h195v-165c0-24.815-20.186-45-45-45z" fill="#ffd9b3"/><path d="M35 339.81v75c0 8.286 6.719 15 15 15h360c8.281 0 15-6.714 15-15v-75H35z" fill="#a6673a"/><path d="M230 429.81h180c8.281 0 15-6.714 15-15v-75H230v90z" fill="#99522e"/><path d="M410 459.81H50c-27.614 0-50-22.386-50-50 0-5.523 4.477-10 10-10h440c5.523 0 10 4.477 10 10 0 27.614-22.386 50-50 50z" fill="#ffc033"/><path d="M450 399.81H230v60h180c27.615 0 50-22.386 50-50 0-5.524-4.478-10-10-10z" fill="#f9a926"/><path d="M290 109.81h-18.436c22.794-19.245 38.329-35.494 38.329-59.785 0-27.944-20.84-49.834-47.451-49.834-14.131 0-24.795 6.006-32.441 13.823C222.354 6.196 211.689.19 197.559.19c-26.611 0-47.451 21.89-47.451 49.834 0 24.291 15.535 40.54 38.329 59.785H170c-24.814 0-45 20.186-45 45v20c0 8.286 6.719 15 15 15h180c8.281 0 15-6.714 15-15v-20c0-24.814-20.186-44.999-45-44.999zm-92.441-79.62c12.734 0 17.754 16.055 18.027 16.948a14.998 14.998 0 0 0 28.857-.098c.049-.166 5.078-16.851 17.998-16.851 11.455 0 17.451 9.976 17.451 19.834 0 13.608-12.793 24.736-39.424 46.626-3.35 2.759-6.846 5.63-10.469 8.652-3.623-3.022-7.119-5.894-10.469-8.652-26.631-21.89-39.424-33.018-39.424-46.626.001-9.857 5.998-19.833 17.453-19.833z" fill="#a6673a"/><path d="M244.443 47.041c.049-.166 5.078-16.851 17.998-16.851 11.455 0 17.451 9.976 17.451 19.834 0 13.608-12.793 24.736-39.424 46.626-3.35 2.759-6.846 5.63-10.469 8.652v84.507h90c8.281 0 15-6.714 15-15v-20c0-24.814-20.186-45-45-45h-18.436c22.794-19.245 38.329-35.494 38.329-59.785 0-27.944-20.84-49.834-47.451-49.834C248.31.19 237.646 6.196 230 14.013v43.984a14.995 14.995 0 0 0 14.443-10.956z" fill="#99522e"/><path d="M380 159.81H80c-24.814 0-45 20.186-45 45v30c0 19.529 12.578 36.024 30 42.236 4.714 1.681 9.714 2.764 15 2.764 11.514 0 22.031-4.346 30-11.484 7.969 7.139 18.486 11.484 30 11.484s22.031-4.346 30-11.484c7.969 7.139 18.486 11.484 30 11.484s22.031-4.346 30-11.484c7.969 7.139 18.486 11.484 30 11.484s22.031-4.346 30-11.484c7.969 7.139 18.486 11.484 30 11.484s22.031-4.346 30-11.484c7.969 7.139 18.486 11.484 30 11.484 5.286 0 10.286-1.083 15-2.764 17.422-6.212 30-22.706 30-42.236v-30c0-24.815-20.186-45-45-45z" fill="#e6563a"/><path d="M380 159.81H230v108.516c7.969 7.139 18.486 11.484 30 11.484s22.031-4.346 30-11.484c7.969 7.139 18.486 11.484 30 11.484s22.031-4.346 30-11.484c7.969 7.139 18.486 11.484 30 11.484 5.286 0 10.286-1.083 15-2.764 17.422-6.212 30-22.706 30-42.236v-30c0-24.815-20.186-45-45-45z" fill="#d9472b"/></svg>